<?xml version="1.0" encoding="UTF-8" standalone="no"?>
<!-- Created with Inkscape (http://www.inkscape.org/) -->

<svg
   xmlns:dc="http://purl.org/dc/elements/1.1/"
   xmlns:cc="http://creativecommons.org/ns#"
   xmlns:rdf="http://www.w3.org/1999/02/22-rdf-syntax-ns#"
   xmlns:svg="http://www.w3.org/2000/svg"
   xmlns="http://www.w3.org/2000/svg"
   xmlns:sodipodi="http://sodipodi.sourceforge.net/DTD/sodipodi-0.dtd"
   xmlns:inkscape="http://www.inkscape.org/namespaces/inkscape"
   width="100"
   height="24"
   viewBox="0 0 26.458332 6.3499997"
   version="1.1"
   id="svg6538"
   inkscape:version="0.92.4 (5da689c313, 2019-01-14)"
   sodipodi:docname="Corficolombiana_logo.svg">
  <title
     id="title834">Corficolombiana logo</title>
  <defs
     id="defs6532">
    <clipPath
       id="clipPath4571"
       clipPathUnits="userSpaceOnUse">
      <path
         inkscape:connector-curvature="0"
         id="path4569"
         d="M 21.758,22.944 H 633.374 V 814.661 H 21.758 Z" />
    </clipPath>
    <clipPath
       id="clipPath4533"
       clipPathUnits="userSpaceOnUse">
      <path
         inkscape:connector-curvature="0"
         id="path4531"
         d="M 21.758,22.944 H 633.374 V 814.661 H 21.758 Z" />
    </clipPath>
  </defs>
  <sodipodi:namedview
     id="base"
     pagecolor="#ffffff"
     bordercolor="#666666"
     borderopacity="1.0"
     inkscape:pageopacity="0.0"
     inkscape:pageshadow="2"
     inkscape:zoom="1"
     inkscape:cx="79.690128"
     inkscape:cy="23.122704"
     inkscape:document-units="mm"
     inkscape:current-layer="layer1"
     showgrid="false"
     fit-margin-top="0"
     fit-margin-left="0"
     fit-margin-right="0"
     fit-margin-bottom="0"
     units="px"
     inkscape:window-width="1366"
     inkscape:window-height="705"
     inkscape:window-x="-8"
     inkscape:window-y="-8"
     inkscape:window-maximized="1"
     inkscape:showpageshadow="false" />
  <metadata
     id="metadata6535">
    <rdf:RDF>
      <cc:Work
         rdf:about="">
        <dc:format>image/svg+xml</dc:format>
        <dc:type
           rdf:resource="http://purl.org/dc/dcmitype/StillImage" />
        <dc:title>Corficolombiana logo</dc:title>
        <cc:license
           rdf:resource="http://scripts.sil.org/OFL" />
      </cc:Work>
      <cc:License
         rdf:about="http://scripts.sil.org/OFL">
        <cc:permits
           rdf:resource="http://scripts.sil.org/pub/OFL/Reproduction" />
        <cc:permits
           rdf:resource="http://scripts.sil.org/pub/OFL/Distribution" />
        <cc:permits
           rdf:resource="http://scripts.sil.org/pub/OFL/Embedding" />
        <cc:permits
           rdf:resource="http://scripts.sil.org/pub/OFL/DerivativeWorks" />
        <cc:requires
           rdf:resource="http://scripts.sil.org/pub/OFL/Notice" />
        <cc:requires
           rdf:resource="http://scripts.sil.org/pub/OFL/Attribution" />
        <cc:requires
           rdf:resource="http://scripts.sil.org/pub/OFL/ShareAlike" />
        <cc:requires
           rdf:resource="http://scripts.sil.org/pub/OFL/DerivativeRenaming" />
        <cc:requires
           rdf:resource="http://scripts.sil.org/pub/OFL/BundlingWhenSelling" />
      </cc:License>
    </rdf:RDF>
  </metadata>
  <g
     inkscape:label="Layer 1"
     inkscape:groupmode="layer"
     id="layer1"
     transform="translate(-57.452416,-156.16075)">
    <g
       id="g7258"
       transform="matrix(0.49083046,0,0,0.49083046,29.524111,82.610123)">
      <path
         style="fill:#173a79;fill-opacity:1;fill-rule:nonzero;stroke:none;stroke-width:1.33333337"
         d="m 61.894531,20.119141 c -5.684001,0 -8.908203,3.775174 -8.908203,8.228515 0,4.43331 3.159942,8.052735 8.97461,8.052735 0.789335,0 2.171098,-0.0656 3.509765,-0.4375 l 1.447266,-2.501953 c -0.570667,0.197329 -2.346417,0.8125 -4.34375,0.8125 -4.146667,0 -6.517578,-2.654898 -6.517578,-6.101563 0,-3.399987 2.414126,-5.923828 6.078125,-5.923828 2.084001,0 3.445882,0.857425 4.060546,1.273437 V 20.867188 C 65.668647,20.669858 64.1532,20.119141 61.894531,20.119141 Z m 29.708985,0.08789 c -0.988003,0 -2.392008,0.242336 -3.138672,1.625 -0.438837,0.789317 -0.458985,1.62365 -0.458985,2.347657 v 0.964843 h -0.265625 l -1.140625,1.865235 h 1.40625 v 8.996093 h 2.521485 V 27.009766 H 92.65625 V 25.144531 H 90.527344 V 23.9375 c 0,-1.053354 0.30731,-1.798828 1.55664,-1.798828 0.440002,0 0.769766,0.131006 1.009766,0.240234 v -1.974609 c -0.438667,-0.109228 -0.810237,-0.197266 -1.490234,-0.197266 z m 3.882812,0.002 c -0.723999,0 -1.361328,0.546453 -1.361328,1.314454 0,0.767999 0.637329,1.316406 1.361328,1.316406 0.746668,0 1.382813,-0.525729 1.382813,-1.316406 0,-0.811994 -0.65881,-1.314454 -1.382813,-1.314454 z m 72.095702,0 c -0.72401,0 -1.35937,0.546453 -1.35937,1.314454 0,0.767999 0.63536,1.316406 1.35937,1.316406 0.74668,0 1.38281,-0.525729 1.38281,-1.316406 0,-0.811994 -0.6588,-1.314454 -1.38281,-1.314454 z M 119.625,20.515625 v 15.490234 h 2.56641 V 20.515625 Z m 34.76367,0 v 14.589844 c 1.14133,0.593348 2.98476,1.164062 4.60742,1.164062 4.16932,0 5.94727,-3.050085 5.94727,-5.96875 0,-3.049323 -1.77675,-5.396484 -4.91406,-5.396484 -0.68,0 -1.42744,0.13188 -1.80078,0.197265 l -1.25,1.820313 v -6.40625 z m -50.38476,4.367187 c -3.90534,0 -5.900394,2.82819 -5.900394,5.769532 0,3.554683 2.609234,5.617187 5.726564,5.617187 1.096,0 1.86392,-0.219657 2.28125,-0.351562 l 1.22851,-2.0625 c -1.032,0.329159 -1.77773,0.570312 -2.67773,0.570312 -2.45733,0 -3.79492,-1.733173 -3.79492,-3.839843 0,-2.149342 1.31654,-3.773438 3.42187,-3.773438 1.38267,0 2.28083,0.658005 2.63282,0.943359 v -2.302734 c -1.22934,-0.505285 -2.32598,-0.570313 -2.91797,-0.570313 z m 70.89648,0 c -1.00932,0 -2.03963,0.217704 -2.6543,0.34961 l -1.33984,2.28125 c 0.94401,-0.373342 2.01855,-0.767578 3.22656,-0.767578 1.95213,0 2.28125,1.03107 2.28125,2.677734 -0.57067,-0.06539 -0.85613,-0.08789 -1.38281,-0.08789 -0.98668,0 -2.01825,0.153485 -2.85156,0.52539 -1.14134,0.482646 -2.12696,1.514647 -2.12696,3.138672 0,1.381304 0.70086,2.106031 1.05274,2.414062 0.59199,0.503925 1.46899,0.855469 2.76367,0.855469 0.61467,0 0.92175,-0.06655 1.31641,-0.175781 l 1.22851,-1.689453 c 0,0.614664 0.045,1.162873 0.17578,1.601562 h 2.50196 c -0.13229,-0.482683 -0.17578,-0.635419 -0.17578,-2.830078 v -4.367187 c -0.0227,-0.921336 -0.0232,-2.01795 -0.92188,-2.917969 -0.94401,-0.942614 -2.30307,-1.007813 -3.09375,-1.007813 z m 21.9082,0 c -1.00932,0 -2.04095,0.217704 -2.65429,0.34961 l -1.33789,2.28125 c 0.94401,-0.373342 2.01795,-0.767578 3.22461,-0.767578 1.95348,0 2.2832,1.03107 2.2832,2.677734 -0.57067,-0.06539 -0.85614,-0.08789 -1.38281,-0.08789 -0.98669,0 -2.01826,0.153485 -2.85157,0.52539 -1.14134,0.482646 -2.13086,1.514647 -2.13086,3.138672 0,1.381304 0.70395,2.106031 1.05469,2.414062 0.59199,0.503925 1.47095,0.855469 2.76563,0.855469 0.61466,0 0.91979,-0.06655 1.31445,-0.175781 l 1.23047,-1.689453 c 0,0.614664 0.0431,1.162873 0.17383,1.601562 H 201 c -0.13077,-0.482683 -0.17578,-0.635419 -0.17578,-2.830078 v -4.367187 c -0.0227,-0.921336 -0.0219,-2.01795 -0.92188,-2.917969 -0.94269,-0.942614 -2.30439,-1.007813 -3.09375,-1.007813 z m -124.052731,0.02148 c -3.445334,0 -5.507812,2.543003 -5.507812,5.791015 0,3.094678 1.820332,5.574219 5.375,5.574219 3.576,0 5.419922,-2.568826 5.419922,-5.771484 0,-3.401348 -2.149777,-5.59375 -5.28711,-5.59375 z m 40.156251,0 c -3.44533,0 -5.50586,2.543003 -5.50586,5.791015 0,3.094678 1.82033,5.574219 5.375,5.574219 3.57733,0 5.41797,-2.568826 5.41797,-5.771484 0,-3.401348 -2.14978,-5.59375 -5.28711,-5.59375 z m 16.01562,0 c -3.44533,0 -5.50781,2.543003 -5.50781,5.791015 0,3.094678 1.82229,5.574219 5.37696,5.574219 3.57733,0 5.41796,-2.568826 5.41796,-5.771484 0,-3.401348 -2.14977,-5.59375 -5.28711,-5.59375 z m 12.78125,0 c -0.79067,0 -1.47012,0.153338 -2.21679,0.416015 l -1.25,1.75586 v -1.931641 h -2.58985 v 10.861328 h 2.58985 V 27.625 c 0.548,-0.285354 1.4038,-0.724609 2.36914,-0.724609 1.79865,0 2.10774,1.207212 2.1289,2.699218 v 6.40625 h 2.56836 v -6.867187 c 0,-0.877342 -0.0222,-1.14162 -0.0449,-1.404297 0.43867,-0.264 1.38103,-0.833984 2.45703,-0.833984 1.73334,0 2.08399,1.139781 2.08399,2.675781 v 6.429687 h 2.58984 v -7 c 0,-1.139981 -0.0219,-2.106235 -0.72461,-2.960937 -0.9,-1.097462 -2.3913,-1.140625 -2.91797,-1.140625 -1.11867,0 -1.88745,0.262626 -2.21679,0.394531 l -1.35938,1.908203 c -0.43867,-1.668019 -1.95347,-2.302734 -3.4668,-2.302734 z m 45.35352,0 c -0.41734,0 -1.33796,0.04158 -2.19531,0.349609 l -1.40235,1.97461 v -2.0625 h -2.56836 v 10.839843 h 2.56836 v -8.294921 c 0.74533,-0.52664 1.66768,-0.810547 2.45704,-0.810547 1.99596,0 2.30468,1.294741 2.30468,2.941406 v 6.164062 h 2.56641 v -6.867187 c 0,-2.259969 -0.61312,-4.234375 -3.73047,-4.234375 z m -101.888672,0.04297 c -0.921332,0 -1.578915,0.176948 -2.017578,0.351562 l -1.251953,1.75586 v -1.888672 h -2.632813 v 10.839843 h 2.632813 V 27.64648 c 0.855999,-0.548107 1.689978,-0.658203 2.195312,-0.658203 0.9,0 1.536755,0.327927 2.107422,0.613281 v -2.5 C 85.89903,25.0135 85.656496,24.947266 85.173828,24.947266 Z m 9.039063,0.197265 V 36.005859 H 96.78125 V 25.144531 Z m 72.097659,0 v 10.861328 h 2.5664 V 25.144531 Z M 72.646484,26.74609 h 0.04297 c 1.886668,0 2.632813,1.800868 2.632813,3.796875 0,2.018683 -0.832966,3.863281 -2.654297,3.863281 -0.789336,0 -1.557166,-0.353262 -2.0625,-1.142578 -0.504,-0.790677 -0.615235,-1.800263 -0.615235,-2.65625 0,-0.921336 0.110463,-1.842135 0.591797,-2.632813 0.484003,-0.833348 1.185789,-1.205838 2.064452,-1.228515 z m 40.156246,0 h 0.0449 c 1.88666,0 2.63281,1.800868 2.63281,3.796875 0,2.018683 -0.83492,3.863281 -2.65625,3.863281 -0.79067,0 -1.55717,-0.353262 -2.0625,-1.142578 -0.50535,-0.790677 -0.61328,-1.800263 -0.61328,-2.65625 0,-0.921336 0.1078,-1.842135 0.59179,-2.632813 0.48267,-0.833348 1.18517,-1.205838 2.0625,-1.228515 z m 16.01563,0 h 0.043 c 1.888,0 2.63281,1.800868 2.63281,3.796875 0,2.018683 -0.83296,3.863281 -2.6543,3.863281 -0.79067,0 -1.5585,-0.353262 -2.0625,-1.142578 -0.50532,-0.790677 -0.61523,-1.800263 -0.61523,-2.65625 0,-0.921336 0.10975,-1.842135 0.59375,-2.632813 0.48267,-0.833348 1.18517,-1.205838 2.0625,-1.228515 z m 30.28711,0.132812 c 2.54533,0 3.13867,2.172056 3.13867,3.664063 0,1.689335 -0.72416,3.794922 -3.16016,3.794922 -1.11866,0 -1.73212,-0.373723 -2.10546,-0.615235 v -6.361328 c 0.32933,-0.153449 1.02962,-0.482422 2.12695,-0.482422 z m 16.60547,4.189453 c 0.21997,0 0.46161,0.02224 0.70312,0.04492 v 2.851563 c -0.39466,0.176164 -1.14037,0.505859 -1.92968,0.505859 -1.36003,0 -1.82227,-0.789271 -1.82227,-1.558594 0,-0.701329 0.39643,-1.380661 1.31641,-1.666015 0.264,-0.08806 0.72306,-0.177735 1.73242,-0.177735 z m 21.91015,0 c 0.21997,0 0.46162,0.02224 0.70313,0.04492 v 2.851563 c -0.39466,0.176164 -1.14233,0.505859 -1.93164,0.505859 -1.36135,0 -1.82031,-0.789271 -1.82031,-1.558594 0,-0.701329 0.39507,-1.380661 1.3164,-1.666015 0.26268,-0.08806 0.72306,-0.177735 1.73242,-0.177735 z"
         transform="matrix(0.26458333,0,0,0.26458333,57.187832,150.0104)"
         id="path4537"
         inkscape:connector-curvature="0" />
      <path
         d="m 59.509254,157.88157 c -0.934861,-0.93486 0.08573,-3.47133 2.27965,-5.66526 0.525286,-0.52528 1.069622,-0.98284 1.607255,-1.36278 v -0.20426 c -0.572911,0.42228 -1.147938,0.91511 -1.703211,1.47073 -2.6924,2.6924 -3.914775,5.8353 -2.730147,7.01993 1.161345,1.16099 4.204053,0.01 6.859764,-2.57175 h -1.727553 c -1.890536,1.50565 -3.801533,2.09761 -4.585758,1.31339 m 7.331428,-1.31339 c -0.112184,0.11888 -0.227189,0.23742 -0.344664,0.35525 -2.976034,2.97568 -6.485467,4.29154 -7.83837,2.93899 -1.352902,-1.35326 -0.03739,-4.86269 2.938992,-7.83872 0.585964,-0.58597 1.192742,-1.10737 1.799519,-1.55681 v -0.19191 c -0.643466,0.48507 -1.280936,1.03752 -1.895827,1.65241 -3.613856,3.61385 -5.080353,8.00664 -3.275895,9.8111 1.804811,1.80481 6.197247,0.33831 9.811103,-3.27554 0.614539,-0.61454 1.166989,-1.25201 1.652058,-1.89477 z"
         style="fill:#aa7f13;fill-opacity:1;fill-rule:nonzero;stroke:none;stroke-width:0.35277778"
         id="path4603"
         inkscape:connector-curvature="0" />
    </g>
  </g>
</svg>
