<svg xmlns="http://www.w3.org/2000/svg" viewBox="0 0 700 110">
  <path fill="#b10012" d="M562.6 78.6h6.6c6.5 0 11-2 13.4-6 2.3-3.8 3.5-9.7 3.5-17.8 0-9.9-1.8-16.5-5.4-19.9-1.4-1.3-3.1-2.3-5.1-2.9-1.8-.5-4.1-.8-6.9-.8h-6.1v47.4M535.3 87v-8.4h3.5c2.9 0 4.7-.5 5.3-1.4.4-.6.6-2 .6-4.2V36.9c0-2.3-.2-3.7-.7-4.3-.7-.8-2.4-1.2-5.2-1.2h-3.5V23h33.9c9.1 0 16 1 20.7 3 11.4 4.9 17.1 14.6 17.1 29 0 11.3-3.5 19.6-10.5 25.1-3.6 2.8-7.5 4.6-11.6 5.5-4.6 1-9.8 1.5-15.7 1.5h-33.9m-63-64.2h37.2v8.4h-4c-2.9 0-4.7.5-5.3 1.4-.4.6-.6 2-.6 4.2v41.8h5c5.2 0 8.7-.2 10.4-.8 3.3-.9 5.7-3.1 7-6.7.7-1.9 1.3-5.3 1.9-10.3h8.4V87h-95.4v-8.4h2.7c2.8 0 4.5-.3 5.2-.8.4-.3.6-.8.6-1.4 0-.5-.1-1.2-.4-2.1l-2.5-7.9h-18.4l-2.4 7.3c-.3 1.1-.5 2-.5 2.7 0 .5.1.9.3 1.2.6.7 2.2 1 4.8 1h3.2V87h-28.1v-8.4h2.3c2.1 0 3.7-.4 4.7-1.1.8-.6 1.7-2.3 2.7-5.1l16.5-49.5h19.1l15.7 49.8c.7 2.2 1.5 3.7 2.3 4.6.9.9 2.3 1.3 4.4 1.3h6.5c2.9 0 4.7-.5 5.3-1.4.4-.6.6-2 .6-4.2V36.9c0-2.3-.2-3.7-.7-4.3-.7-.8-2.4-1.2-5.2-1.2h-3.5v-8.5M440 58.1l-6.4-20.2-6.6 20.2h13m-86.5-8.7h6.8c4.7 0 7.9-.6 9.7-1.7 1.9-1.3 2.9-3.6 2.9-7.1 0-3.3-.9-5.6-2.8-7.2-1.1-.9-2.3-1.5-3.7-1.7-1.4-.2-3.2-.3-5.4-.3h-7.5v18m9.4 29.2V87h-36.7v-8.4h3.5c2.9 0 4.7-.5 5.3-1.4.4-.6.6-2 .6-4.2V36.8c0-2.3-.2-3.7-.7-4.3-.7-.8-2.4-1.2-5.2-1.2h-3.5v-8.4h42.1c5.7 0 10.1.5 13.1 1.6 3.6 1.3 6.3 3.4 8 6.4 1.4 2.3 2.1 4.9 2.1 7.6 0 4.6-1.7 8.3-5.2 10.9-2 1.5-5.2 2.8-9.5 3.8 3.1.7 5.4 1.4 6.7 2.2 3.1 1.8 4.6 5.4 4.6 10.6v6.2c0 3.3.4 5.4 1.1 6.3.3.4.8.6 1.5.6.9 0 1.6-.3 2.1-1 .6-.9 1-2.4 1.1-4.5 0-.7.1-2.2.1-4.6h6.4v1.5c0 4.1-.3 7.1-1 9.2-1.1 3.6-3 6-5.8 7.4-2.1 1.1-4.8 1.6-8 1.6-5 0-8.9-1.3-11.7-3.9-1.5-1.4-2.5-3.1-3-4.8-.6-2-.8-4.6-.8-7.7v-6.1c0-3.7-.6-6.1-1.7-7.1-1.2-1-3.5-1.5-7.1-1.5h-7.9v15.3c0 2.3.2 3.7.7 4.3.7.8 2.4 1.2 5.2 1.2h3.6M256.5 87v-8.4h3.5c2.9 0 4.7-.5 5.3-1.4.4-.6.6-2 .6-4.1V36.8c0-2.3-.2-3.7-.7-4.3-.7-.8-2.4-1.2-5.2-1.2h-3.5v-8.4h63.4v24.5h-8.4c-.7-4.3-1.3-7.1-1.9-8.6-1.3-3.5-3.7-5.8-7-6.7-1.8-.5-5.2-.8-10.4-.8h-8.4v18.3h1.6c3.7 0 6.1-.7 7.2-2.1 1-1.2 1.5-3.9 1.7-8.1h8v29.3h-8c-.2-3.6-.5-6-.9-7.2-.5-1.5-1.5-2.5-2.8-3-.9-.3-2.6-.5-5.2-.5h-1.6v20.6h8.6c4.6 0 8.1-.4 10.5-1.2 3.2-1.1 5.5-3.8 6.9-8 .6-1.8 1.2-4.7 1.7-8.9h8.4V87h-63.4m-79.1 0v-8.4h3.5c2.9 0 4.7-.5 5.3-1.4.4-.6.6-2 .6-4.2V36.9c0-2.3-.2-3.7-.7-4.3-.7-.8-2.4-1.2-5.2-1.2h-3.5V23h35.1v8.4h-1.8c-2.9 0-4.7.5-5.3 1.4-.4.6-.6 2-.6 4.2v12.5h20.8V36.9c0-2.3-.2-3.7-.7-4.3-.7-.8-2.4-1.2-5.2-1.2h-1.8V23H253v8.4h-3.6c-2.9 0-4.7.5-5.3 1.4-.4.6-.6 2-.6 4.2v36.2c0 2.3.2 3.7.7 4.3.7.8 2.4 1.2 5.2 1.2h3.6V87h-35.1v-8.4h1.8c2.9 0 4.7-.5 5.3-1.4.4-.6.6-2 .6-4.2V58h-20.8v15c0 2.3.2 3.7.7 4.3.7.8 2.4 1.2 5.2 1.2h1.8V87h-35.1M84.8 22.9H122v8.4h-4c-2.9 0-4.7.5-5.3 1.4-.4.6-.6 2-.6 4.2v41.8h5c5.2 0 8.7-.2 10.4-.8 3.3-.9 5.7-3.1 7-6.7.7-1.9 1.3-5.3 1.9-10.3h8.4V87h-60v-8.4h3.5c2.9 0 4.7-.5 5.3-1.4.4-.6.6-2 .6-4.2V36.9c0-2.3-.2-3.7-.7-4.3-.7-.8-2.4-1.2-5.2-1.2h-3.5v-8.5M17 87v-8.4h3.5c2.9 0 4.7-.5 5.3-1.4.4-.6.6-2 .6-4.1V36.8c0-2.3-.2-3.7-.7-4.3-.7-.8-2.4-1.2-5.2-1.2H17v-8.4h63.4v24.5H72c-.7-4.3-1.3-7.1-1.9-8.6-1.3-3.5-3.7-5.8-7-6.7-1.8-.5-5.2-.8-10.4-.8h-8.4v18.3H46c3.7 0 6.1-.7 7.2-2.1 1-1.2 1.5-3.9 1.7-8.1h8v29.3h-8c-.2-3.6-.5-6-.9-7.2-.5-1.5-1.5-2.5-2.8-3-.8-.3-2.6-.5-5.2-.5h-1.6v20.6H53c4.6 0 8.1-.4 10.5-1.2 3.2-1.1 5.5-3.8 6.9-8 .6-1.8 1.2-4.7 1.7-8.9h8.4V87H17m630-66c11.1 0 19.8 3 26.1 8.9 6.5 6.1 9.8 14.5 9.8 25 0 10.6-3.3 18.9-9.8 25-6.3 5.9-15 8.9-26 8.9-11.2 0-19.9-3-26.3-8.9-6.5-6.1-9.8-14.6-9.8-25.5 0-7 1.5-13 4.6-18.1 3.4-5.7 8.2-9.8 14.5-12.4C634.8 22 640.4 21 647 21m0 8.9c-5.4 0-9.3 2.1-11.7 6.2-1.4 2.3-2.3 4.8-2.7 7.5-.5 3.5-.8 7.1-.8 10.9 0 6.7.5 11.7 1.5 14.9 2.2 7.1 6.8 10.7 13.7 10.7 5.3 0 9.2-2.1 11.6-6.2 1.3-2.3 2.2-4.8 2.7-7.6.5-3.4.8-7.2.8-11.3 0-6.4-.5-11.2-1.5-14.5-2.1-7.1-6.7-10.6-13.6-10.6"/>
</svg>
