<?xml version="1.0" encoding="utf-8"?>
<!-- Generator: Adobe Illustrator 27.9.0, SVG Export Plug-In . SVG Version: 6.00 Build 0)  -->
<svg version="1.1" id="Capa_1" xmlns="http://www.w3.org/2000/svg" xmlns:xlink="http://www.w3.org/1999/xlink" x="0px" y="0px"
	 viewBox="0 0 203.9 96.51" style="enable-background:new 0 0 203.9 96.51;" xml:space="preserve">
<style type="text/css">
	.st0{fill:#FFFFFF;}
	.st1{fill:url(#SVGID_1_);}
	.st2{fill:#004C9B;}
	.st3{fill:#D9000D;}
	.st4{fill-rule:evenodd;clip-rule:evenodd;fill:#FFFFFF;}
</style>
<g>
	<rect x="0" class="st0" width="203.9" height="90.56"/>
	<linearGradient id="SVGID_1_" gradientUnits="userSpaceOnUse" x1="-0.0118" y1="93.0489" x2="203.6656" y2="94.0153">
		<stop  offset="5.496231e-04" style="stop-color:#000000;stop-opacity:0"/>
		<stop  offset="0.5609" style="stop-color:#000000;stop-opacity:0.4"/>
		<stop  offset="1" style="stop-color:#000000;stop-opacity:0"/>
	</linearGradient>
	<path class="st1" d="M0,90.56v5.95c0,0,7.3-2.98,102.45-2.98s101.45,2.98,101.45,2.98v-5.95H0z"/>
	<path id="Trazado_14837" class="st2" d="M197.61,84.25L6.3,84.28L6.29,6.38l191.32-0.03L197.61,84.25z"/>
	<rect id="Rectángulo_5170" x="6.3" y="64.07" class="st3" width="191.31" height="20.19"/>
	<g id="Grupo_14102">
		<path id="Trazado_14838" class="st4" d="M52.97,66.88h-7.82l-4.23,15.05h18.6l0.86-3H49.61L52.97,66.88z M65.81,66.88l-4.24,15.05
			h7.85l4.23-15.05L65.81,66.88z M132.52,66.88l-4.2,15.05h7.82l4.38-15.05L132.52,66.88z M157.95,76.05
			c-0.74,1.46-2.37,2.58-5.08,2.58c-4.25,0-4.44-2-3.82-4.12c0.7-2.73,3.23-4.59,6.04-4.43c2.63,0,4.03,0.89,3.82,2.46h7.94
			c0.5-3.88-3.19-6.16-11.01-6.16c-7.15,0-13.67,3.06-15.13,7.95c-1.45,4.91,2.76,8,11.2,8c6.76,0,12.2-2.37,14.1-6.28L157.95,76.05
			z M95.41,66.88l-7.13,9.34l-1.47-9.34h-9.65l-4.28,15.05h7.18l2.23-9.67l1.73,9.67h5.25l7.57-9.67l-3.26,9.67h7.16l4.29-15.05
			L95.41,66.88z M30.02,66.38c-7.71,0-13.84,3.13-15.22,7.91c-1.47,5.2,2.86,8.18,10.61,8.18c7.31,0,13.81-2.91,15.29-8.13
			C41.86,70.32,38.83,66.38,30.02,66.38 M32.61,74.34c-0.71,2.52-2.64,4.39-6.14,4.39c-3.86,0-4.13-2.44-3.57-4.39
			c0.75-2.64,3.24-4.39,5.97-4.22C32.45,70.06,33.19,72.26,32.61,74.34 M119.84,66.87H108.3l-4.2,15.05h7.84l1.29-4.76h3.97
			c6.89,0,10.5-2.05,11.4-5.26C129.48,68.85,126.71,66.87,119.84,66.87 M121.13,71.95c-0.35,1.25-1.81,1.72-3.64,1.72h-3.24
			l0.92-3.33h2.22C119.06,70.35,121.54,70.55,121.13,71.95 M185.8,66.87h-8.21L164.41,81.9h7.91l1.49-1.96h8.04l0.4,1.96h8.06
			L185.8,66.87z M176.27,76.79l4.05-5.35l1.05,5.35H176.27z"/>
		<path id="Trazado_14839" class="st0" d="M105.22,64.07H91.75c-10.8-0.94-17.17-1.56-22.6-3.53c-14.22-4.93-14.95-23.27,2.91-28.13
			c8.66-2.37,25.81-10.12,17.07-21.32c18.97,2.33,31.1,8.4,37.97,15.2c0.49-1.26,0.49-2.66-0.01-3.91
			C151.2,29.18,161.19,64.08,105.22,64.07"/>
		<path id="Trazado_14840" class="st2" d="M105.38,64.07c21.85-1.67,28.54-11.12,24.27-21.24c-2.04-5.53-10.24-13.42-29.02-20.5
			c3.33,9.42-0.92,14-12.29,16.63c-17.03,2.83-17.13,16.53-8.79,20.78c3.84,2.15,5.89,3.22,12.27,4.33H105.38z"/>
		<path id="Trazado_14841" class="st3" d="M105.35,64.07c16.78-3.21,21.89-18.33-0.95-26.54c1.31,5.38-1.43,8.32-10.13,10.05
			c-10.75,2.82-11.8,13.84-2.38,16.49H105.35z"/>
	</g>
</g>
</svg>
