<?xml version="1.0" encoding="UTF-8" standalone="no"?>
<svg
   xmlns:dc="http://purl.org/dc/elements/1.1/"
   xmlns:cc="http://creativecommons.org/ns#"
   xmlns:rdf="http://www.w3.org/1999/02/22-rdf-syntax-ns#"
   xmlns:svg="http://www.w3.org/2000/svg"
   xmlns="http://www.w3.org/2000/svg"
   xmlns:sodipodi="http://sodipodi.sourceforge.net/DTD/sodipodi-0.dtd"
   xmlns:inkscape="http://www.inkscape.org/namespaces/inkscape"
   xml:space="preserve"
   width="1688.0883"
   height="1407.634"
   version="1.1"
   style="clip-rule:evenodd;fill-rule:evenodd;image-rendering:optimizeQuality;shape-rendering:geometricPrecision;text-rendering:geometricPrecision"
   viewBox="0 0 44664 37243.653"
   id="svg16"
   sodipodi:docname="RCN Televisión (2019-Sep).svg"
   inkscape:version="1.0.1 (3bc2e813f5, 2020-09-07)"><metadata
   id="metadata20"><rdf:RDF><cc:Work
       rdf:about=""><dc:format>image/svg+xml</dc:format><dc:type
         rdf:resource="http://purl.org/dc/dcmitype/StillImage" /><dc:title></dc:title></cc:Work></rdf:RDF></metadata><sodipodi:namedview
   pagecolor="#ffffff"
   bordercolor="#666666"
   borderopacity="1"
   objecttolerance="10"
   gridtolerance="10"
   guidetolerance="10"
   inkscape:pageopacity="0"
   inkscape:pageshadow="2"
   inkscape:window-width="1920"
   inkscape:window-height="1017"
   id="namedview18"
   showgrid="false"
   units="px"
   inkscape:zoom="0.29380808"
   inkscape:cx="619.436"
   inkscape:cy="1037.2968"
   inkscape:window-x="-8"
   inkscape:window-y="-8"
   inkscape:window-maximized="1"
   inkscape:current-layer="svg16"
   inkscape:document-rotation="0" />
 <defs
   id="defs4">
  <style
   type="text/css"
   id="style2">
   <![CDATA[
    .fil0 {fill:#373435}
    .fil1 {fill:#4570B5;fill-rule:nonzero}
    .fil2 {fill:#82C34C;fill-rule:nonzero}
   ]]>
  </style>
 </defs>
 <g
   id="Foreground">
  <metadata
   id="CorelCorpID_0Corel-Layer" />
  
  <path
   class="fil1"
   d="m 31275,23278 c -2797,-1628 -3528,-2976 -3589,-3096 672,-294 1300,-643 1875,-1038 107,221 680,1192 2977,2432 3268,1764 5234,1632 6084,1632 l 3946,1 V 2406 H 37030 V 8942 C 34740,4021 29561,189 22393,166 27458,-482 31754,806 34935,3368 V 309 h 9729 v 24996 h -6889 c -1105,-93 -3056,-21 -6500,-2027 z"
   id="path9"
   style="fill:#318f44;fill-opacity:1" />
  <path
   class="fil2"
   d="M 29870,10039 C 28532,7896 25693,6415 22405,6415 c -4562,0 -8260,2851 -8260,6367 0,3516 3698,6366 8260,6366 3340,0 6217,-1528 7519,-3726 l 2136,1226 c -1815,2743 -5481,4619 -9708,4619 -6032,0 -10921,-3818 -10921,-8528 0,-4709 4889,-8527 10921,-8527 4198,0 7843,1850 9679,4563 z"
   id="path11"
   style="fill:#66bb45;fill-opacity:1" />
  <path
   class="fil1"
   d="m 13389,2336 c 2461,1433 3323,2648 3536,3002 -669,299 -1294,653 -1864,1053 C 14876,6069 14212,5164 12126,4038 8859,2274 6892,2407 6042,2407 l -3946,-1 v 20803 h 5538 v -6536 c 2289,4921 7469,8753 14637,8776 -5065,647 -9361,-640 -12542,-3202 v 3058 H 0 V 309 h 6889 c 1105,94 3056,21 6500,2027 z"
   id="path13"
   style="fill:#318f44;fill-opacity:1" />
 <text
   xml:space="preserve"
   style="font-weight:bold;font-size:7290.9px;line-height:1.25;font-family:'Gotham Black';-inkscape-font-specification:'Gotham Black, Bold';stroke-width:37.9735"
   x="-277.05457"
   y="32079.955"
   id="text847"><tspan
     sodipodi:role="line"
     id="tspan845"
     x="-277.05457"
     y="32079.955"
     style="stroke-width:37.9735" /></text><path
   style="fill:#66bb45;fill-opacity:1;fill-rule:evenodd;stroke-width:0.425448;stroke-miterlimit:8;paint-order:markers fill stroke"
   d="m 100.9167,1016.1249 c -21.262695,-0.5527 -42.407532,6.4781 -59.805562,18.5478 -20.380798,14.7214 -34.9701151,37.3556 -39.211595,62.2092 -2.30563923,12.5088 -2.01178599,25.4255 -0.237504,37.9791 3.8239692,22.1996 15.301912,43.06 32.567062,57.6233 20.43898,17.7529 48.341684,25.8656 75.159169,23.3285 19.68398,-1.2358 39.33479,-7.8069 54.51494,-20.6627 7.73704,-6.4818 14.84068,-13.8976 20.58241,-22.1845 -12.94382,-9.8755 -26.41641,-19.0606 -39.62564,-28.584 -8.20427,8.8802 -17.14322,18.203 -29.27988,21.281 -14.32447,4.0062 -30.829601,1.9151 -42.36404,-7.9774 -12.067512,-10.0941 -18.686722,-26.1238 -17.878048,-41.777 -0.287535,-8.4374 1.200171,-16.9106 4.911582,-24.5317 6.344567,-14.4203 20.420452,-25.3975 36.295944,-26.6781 13.685652,-1.529 27.729212,3.291 37.752202,12.7001 3.30936,2.9143 6.24575,6.2127 9.13217,9.5369 13.18229,-10.3273 26.5636,-20.4861 39.63728,-30.899 -2.27123,-4.5243 -6.25247,-8.1508 -9.619,-11.9433 -17.60538,-18.5578 -43.39467,-28.3248 -68.79635,-27.9557 -1.24501,-0.013 -2.49008,-0.017 -3.73514,-0.012 z"
   id="path852"
   transform="scale(26.458334)" /><path
   style="fill:#66bb45;fill-opacity:1;fill-rule:evenodd;stroke-width:0.425448;stroke-miterlimit:8;paint-order:markers fill stroke"
   d="m 298.56961,1018.5156 c -8.60119,5e-4 -17.20238,0 -25.80357,0 -27.25553,64.5414 -54.63806,129.1031 -81.80231,193.6369 18.60078,0.6649 37.23576,0.229 55.84999,0.354 4.55116,-11.4128 9.10284,-22.8253 13.65505,-34.2377 24.93828,0 49.87655,0 74.81483,0 4.65777,11.4162 9.31554,22.8323 13.9733,34.2485 18.96071,-0.085 37.9352,0.2077 56.88703,-0.2617 -27.11834,-64.639 -54.53903,-129.1511 -81.77074,-193.7425 -8.60119,3e-4 -17.20238,6e-4 -25.80358,9e-4 z m -0.42461,63.3693 c 7.48974,17.9705 14.41476,36.3296 21.61225,54.4789 -14.31644,-0.1641 -28.66418,0.3594 -42.96109,-0.3565 -0.49553,-1.3311 1.46646,-3.6739 1.74626,-5.317 6.52226,-16.251 12.78914,-32.6988 19.50868,-48.8129 l 0.0465,-9e-4 z"
   id="path854"
   transform="scale(26.458334)" /><path
   style="fill:#66bb45;fill-opacity:1;fill-rule:evenodd;stroke-width:0.425448;stroke-miterlimit:8;paint-order:markers fill stroke"
   d="m 425.28908,1116.155 c 0,32.1213 0,64.2426 0,96.3639 17.58406,0 35.16813,0 52.7522,0 0.072,-35.2673 0.14403,-70.5346 0.21605,-105.8019 27.46133,35.2673 54.92265,70.5346 82.38397,105.8019 15.57982,0 31.15963,0 46.73944,0 0,-64.2426 0,-128.4852 0,-192.7278 -17.58407,0 -35.16814,0 -52.75221,0 -0.072,33.9533 -0.14403,67.9065 -0.21605,101.8598 -26.37776,-33.935 -52.75552,-67.87 -79.13329,-101.805 -16.66337,-0.018 -33.32674,-0.037 -49.99011,-0.055 0,32.1213 0,64.2426 0,96.3639 z"
   id="path856"
   transform="scale(26.458334)" /><path
   style="fill:#66bb45;fill-opacity:1;fill-rule:evenodd;stroke-width:0.425448;stroke-miterlimit:8;paint-order:markers fill stroke"
   d="m 668.6419,1112.0069 c -14.17113,33.5034 -28.31007,67.0204 -42.50905,100.512 18.67981,0 37.35963,0 56.03945,0 4.59628,-11.4871 9.19255,-22.9742 13.78883,-34.4612 24.8718,0 49.7436,0 74.6154,0 4.66774,11.4161 9.33548,22.8323 14.00322,34.2485 19.06233,0.073 38.12466,0.1461 57.187,0.2185 -27.38503,-64.6387 -54.61945,-129.3932 -82.0541,-193.9784 -11.65805,-0.8443 -23.4095,-0.2811 -35.10359,-0.457 -5.42391,0 -10.84781,0 -16.27172,0 -13.23182,31.3059 -26.46363,62.6117 -39.69544,93.9176 z m 64.84672,-29.7548 c 7.46673,17.8676 14.6504,35.8709 21.5225,53.9754 -14.42941,0.2407 -28.86734,0.093 -43.30011,0.1363 7.29977,-17.9869 14.01281,-36.2241 21.70448,-54.0444 0.0141,0.019 0.0434,-0.1068 0.0731,-0.067 z"
   id="path862"
   transform="scale(26.458334)" /><path
   style="fill:#66bb45;fill-opacity:1;fill-rule:evenodd;stroke-width:0.425448;stroke-miterlimit:8;paint-order:markers fill stroke"
   d="m 860.52218,1116.155 c 0,32.1213 0,64.2426 0,96.3639 48.9265,0 97.85299,0 146.77952,0 0,-15.5997 0,-31.1995 0,-46.7992 -31.05772,0 -62.11541,0 -93.1731,0 0,-48.6429 0,-97.2858 0,-145.9286 -17.86881,0 -35.73761,0 -53.60642,0 0,32.1213 0,64.2426 0,96.3639 z"
   id="path864"
   transform="scale(26.458334)" /><path
   style="fill:#66bb45;fill-opacity:1;fill-rule:evenodd;stroke-width:0.425448;stroke-miterlimit:8;paint-order:markers fill stroke"
   d="m 1106.8565,1116.155 c 0,32.1213 0,64.2426 0,96.3639 17.7269,0 35.4539,0 53.1809,0 0,-19.5706 0,-39.1412 0,-58.7118 7.7988,0 15.5976,0 23.3963,0 13.0493,19.5706 26.0986,39.1412 39.1479,58.7118 20.4531,0 40.9061,0 61.3592,0 -15.0741,-22.4663 -30.7394,-44.6175 -45.6002,-67.1775 6.0664,-3.3734 12.3813,-6.4993 17.6479,-11.1363 10.3992,-8.116 17.2836,-20.0968 20.0247,-32.9181 1.9833,-9.8667 1.9675,-20.1629 0.4025,-30.0874 -2.6016,-16.4798 -13.0786,-31.1761 -27.3554,-39.6504 -16.0466,-9.6717 -35.253,-11.9745 -53.6549,-11.6663 -29.5159,-0.1669 -59.0327,-0.061 -88.5489,-0.092 0,32.1213 0,64.2426 0,96.3639 z m 72.4324,-50.4131 c 9.5509,0.3118 19.3562,-0.722 28.6928,1.7384 7.7192,2.1055 14.6197,8.2683 15.6461,16.5027 1.5716,8.4436 -0.9214,18.2562 -8.5124,23.0703 -5.4393,3.816 -12.1496,5.1392 -18.7022,4.8206 -12.1247,0.1482 -24.2505,0.1908 -36.3758,0.2884 0,-15.4743 0,-30.9486 0,-46.4229 6.4172,9e-4 12.8344,0 19.2515,0 z"
   id="path866"
   transform="scale(26.458334)" /><path
   style="fill:#66bb45;fill-opacity:1;fill-rule:evenodd;stroke-width:0.425448;stroke-miterlimit:8;paint-order:markers fill stroke"
   d="m 1400.3199,1016.0277 c -16.6081,-0.1936 -33.3391,3.1775 -48.1026,10.9352 -23.9083,11.7095 -42.2495,33.831 -49.6176,59.3825 -3.2843,10.3794 -4.4292,21.2834 -4.0532,32.1363 -0.3548,30.8495 15.2028,61.4208 40.4266,79.2173 19.4186,13.9363 43.9211,20.1564 67.6654,18.1423 22.7431,-1.0387 45.2348,-9.9867 61.5711,-26.0189 5.4002,-5.2141 10.4063,-10.9045 14.6488,-17.0911 -13.1697,-9.4688 -26.4161,-18.9491 -39.8251,-28.0115 -5.3383,4.8658 -9.8887,10.7014 -16.0776,14.6242 -13.4306,9.4074 -32.0167,10.8795 -46.8255,3.9227 -12.9698,-6.1679 -22.0781,-18.8296 -25.1667,-32.7103 -2.0109,-8.2239 -1.8845,-16.8825 -0.9742,-25.2503 3.0105,-18.0112 15.9931,-35.112 34.2593,-39.4586 12.2559,-3.044 25.6707,-1.0248 36.4099,5.672 6.5607,3.9698 11.8981,9.6621 16.8658,15.4308 13.202,-10.3641 26.7697,-20.3882 39.6589,-31.0751 -6.9998,-10.7021 -16.7669,-19.585 -27.6732,-26.2417 -15.8805,-9.7243 -34.6786,-13.9403 -53.1901,-13.6058 z"
   id="path868"
   transform="scale(26.458334)" /><path
   style="fill:#66bb45;fill-opacity:1;fill-rule:evenodd;stroke-width:0.425448;stroke-miterlimit:8;paint-order:markers fill stroke"
   d="m 1505.9265,1116.155 c 0,32.1213 0,64.2426 0,96.3639 17.5852,0 35.1703,0 52.7555,0 0.1033,-35.1635 -0.2524,-70.3401 0.3191,-105.4952 27.7409,34.946 54.9329,70.3289 82.3956,105.4952 15.5405,0 31.081,0 46.6215,0 0,-64.2426 0,-128.4852 0,-192.7278 -17.5841,0 -35.1682,0 -52.7522,0 -0.072,33.9095 -0.1441,67.819 -0.2161,101.7285 -26.3799,-33.9037 -52.7645,-67.8037 -79.1333,-101.7161 -16.6634,0 -33.3267,-0.01 -49.9901,-0.012 0,32.1213 0,64.2426 0,96.3639 z"
   id="path870"
   transform="scale(26.458334)" /></g>
<text
   xml:space="preserve"
   style="font-weight:bold;font-size:4711.91px;line-height:1.25;font-family:'Gotham Black';-inkscape-font-specification:'Gotham Black, Bold';stroke-width:24.5412"
   x="9442.7666"
   y="37184.945"
   id="text851"><tspan
     sodipodi:role="line"
     id="tspan849"
     x="9442.7666"
     y="37184.945"
     style="stroke-width:24.5412" /></text><text
   xml:space="preserve"
   style="font-style:normal;font-variant:normal;font-weight:normal;font-stretch:normal;font-size:5080px;line-height:1.25;font-family:Gotham;-inkscape-font-specification:Gotham;stroke-width:26.4583"
   x="28952.078"
   y="37011.828"
   id="text855"><tspan
     sodipodi:role="line"
     id="tspan853"
     x="28952.078"
     y="37011.828"
     style="font-style:normal;font-variant:normal;font-weight:normal;font-stretch:normal;font-family:'Gotham Light';-inkscape-font-specification:'Gotham Light, ';stroke-width:26.4583" /></text><text
   xml:space="preserve"
   style="font-style:normal;font-variant:normal;font-weight:normal;font-stretch:normal;font-size:5080px;line-height:1.25;font-family:Gotham;-inkscape-font-specification:Gotham;stroke-width:26.4583"
   x="28591.867"
   y="37200.895"
   id="text843"><tspan
     sodipodi:role="line"
     id="tspan841"
     x="28591.867"
     y="37200.895"
     style="font-style:normal;font-variant:normal;font-weight:normal;font-stretch:normal;font-family:Gotham;-inkscape-font-specification:Gotham;stroke-width:26.4583" /></text><text
   xml:space="preserve"
   style="font-style:normal;font-variant:normal;font-weight:500;font-stretch:normal;font-size:4711.91px;line-height:1.25;font-family:'Gotham Black';-inkscape-font-specification:'Gotham Black,  Medium';stroke-width:24.5412"
   x="27347.053"
   y="37160.629"
   id="text850"><tspan
     sodipodi:role="line"
     id="tspan848"
     x="27347.053"
     y="37160.629"
     style="font-style:normal;font-variant:normal;font-weight:normal;font-stretch:normal;font-family:Gotham;-inkscape-font-specification:Gotham;stroke-width:24.5412" /></text><path
   style="fill:#318f44;fill-opacity:1;fill-rule:evenodd;stroke-width:0.212724;stroke-miterlimit:8;paint-order:markers fill stroke"
   d="m 426.68127,1307.1073 c -9.74197,0.294 -18.63502,5.7734 -24.8235,13.0623 -0.7268,0.8281 -1.41594,1.6881 -2.1056,2.5471 -0.005,-4.5026 -0.009,-9.0053 -0.0141,-13.5079 -11.20346,0 -22.40691,0 -33.61037,0 0,32.0504 0,64.1008 0,96.1512 11.19944,0 22.39888,0 33.59832,0 0.0438,-18.5425 0.0875,-37.0849 0.1313,-55.6273 0.90962,-4.3444 3.00859,-8.767 7.07885,-10.9548 3.40328,-1.9974 7.64605,-2.0529 11.3953,-1.1717 5.83379,1.7661 9.21189,7.9826 9.10558,13.8391 0.32881,15.1412 0.097,30.2895 0.16785,45.4336 0,2.827 0,5.654 0,8.4811 11.27936,0 22.55871,0 33.83806,0 -0.10285,-21.7506 0.0249,-43.5035 -0.25908,-65.2526 -0.0174,-7.6041 -2.22134,-15.3302 -6.74917,-21.486 -3.09225,-3.7389 -6.79845,-7.11 -11.39407,-8.8661 -4.51395,-2.0265 -9.4729,-2.7045 -14.38583,-2.6372 -0.65775,-0.012 -1.31567,-0.02 -1.97351,-0.011 z"
   id="path876"
   transform="scale(26.458334)" /><path
   style="fill:#318f44;fill-opacity:1;fill-rule:evenodd;stroke-width:0.212724;stroke-miterlimit:8;paint-order:markers fill stroke"
   d="m 478.23316,1342.0522 c 0.0564,11.7519 -0.0934,23.511 0.23624,35.2579 0.83154,9.2 4.7165,18.5909 12.36807,24.154 6.36249,4.7958 14.60289,6.4168 22.43181,5.8749 9.88686,-0.2804 18.93184,-5.9056 25.0785,-13.4148 0.3621,-0.1543 1.27679,-1.9571 1.45026,-1.2321 0.20965,4.2187 0.0935,8.4456 0.12505,12.6679 11.20346,0 22.40692,0 33.61038,0 0,-32.0504 0,-64.1008 0,-96.1512 -11.20346,0 -22.40692,0 -33.61038,0 -0.0553,18.0493 0.12377,36.1023 -0.19776,54.149 -0.25203,4.4672 -2.2283,8.8681 -5.85573,11.5914 -5.81231,4.2476 -15.32563,3.1463 -19.22575,-3.1892 -1.97841,-3.0663 -2.67225,-6.7572 -2.48529,-10.3624 -0.16939,-17.3957 -0.0754,-34.7926 -0.1023,-52.1888 -11.27436,0 -22.54873,0 -33.8231,0 0,10.9478 0,21.8956 0,32.8434 z"
   id="path878"
   transform="scale(26.458334)" /><path
   style="fill:#318f44;fill-opacity:1;fill-rule:evenodd;stroke-width:0.212724;stroke-miterlimit:8;paint-order:markers fill stroke"
   d="m 635.61021,1307.1189 c -15.45262,-0.1733 -30.78595,7.8809 -39.15382,20.9221 -4.67147,7.2196 -7.60682,15.6304 -8.24622,24.2145 -0.30588,6.9089 -0.29667,13.9598 1.76245,20.6321 3.23112,11.5757 10.95785,21.9146 21.51282,27.7799 9.4944,5.3903 20.62563,7.5328 31.47247,6.8455 14.61515,-0.3772 29.13299,-7.3042 37.98659,-19.0455 0.47936,-0.8101 -1.04134,-1.1293 -1.35392,-1.7095 -5.55604,-4.6355 -11.08491,-9.3277 -16.73426,-13.8363 -2.68116,1.7411 -4.90378,4.1756 -7.75105,5.7128 -4.65154,2.9133 -10.2149,4.1569 -15.67026,3.7006 -6.78575,-0.151 -13.54902,-3.814 -16.72866,-9.9266 -0.86018,-1.7325 -1.84388,-3.6425 -2.10522,-5.5042 6.59059,-0.4197 13.221,-0.1886 19.82734,-0.2863 14.82197,-0.036 29.64398,-0.053 44.46596,-0.08 0.30991,-9.8584 0.0167,-19.9901 -3.5393,-29.3178 -3.49386,-9.6185 -9.80798,-18.4888 -18.79629,-23.6476 -7.04463,-4.2392 -15.23995,-6.2917 -23.43038,-6.4042 -1.17229,-0.039 -2.34533,-0.055 -3.51825,-0.049 z m 1.30127,24.7196 c 5.01998,-0.043 9.92218,2.5152 12.69617,6.7164 2.23407,3.1331 3.40075,6.9559 3.80198,10.7523 -11.00958,-0.037 -22.02555,0.2321 -33.0312,-0.051 -1.0564,0.026 -0.0303,-1.3936 -0.0935,-1.9352 1.14046,-4.7137 3.33457,-9.332 7.21682,-12.395 2.59074,-2.1597 6.07967,-3.0988 9.40971,-3.0878 z"
   id="path880"
   transform="scale(26.458334)" /><path
   style="fill:#318f44;fill-opacity:1;fill-rule:evenodd;stroke-width:0.212724;stroke-miterlimit:8;paint-order:markers fill stroke"
   d="m 735.08689,1307.1921 c -10.64603,0.041 -21.92356,2.831 -29.71903,10.4716 -6.67197,6.4218 -9.28667,16.1456 -8.25243,25.1883 0.56607,6.7299 4.09828,13.0953 9.55205,17.0893 8.89655,6.747 20.14856,8.7028 30.55541,11.9937 3.08383,1.0712 6.70312,1.8177 8.79103,4.5419 1.36461,2.4122 0.10308,5.8227 -2.61086,6.6206 -2.81178,1.1058 -5.93385,0.5208 -8.8808,0.6012 -8.22857,-0.5462 -16.16159,-3.4192 -23.44534,-7.1753 -2.14607,-1.0216 -4.07348,-2.5563 -6.29986,-3.3579 -4.19533,6.6414 -8.38299,13.3411 -12.31846,20.1137 5.88601,4.468 12.66581,7.7288 19.66242,10.079 7.58703,2.4296 15.52867,3.9603 23.50681,4.0608 6.26518,-0.027 12.62438,-0.1944 18.64368,-2.1305 8.10155,-2.3188 15.77454,-7.3992 19.53902,-15.1499 3.38169,-6.7053 4.07977,-14.6426 2.51441,-21.9395 -1.5116,-6.8728 -6.59181,-12.3892 -12.57816,-15.8035 -9.83575,-5.8152 -21.3359,-7.5225 -31.81419,-11.7706 -2.28927,-0.9504 -5.04898,-2.7845 -4.59309,-5.6397 0.57828,-3.1857 4.31121,-4.2099 7.11794,-4.1564 10.02754,-0.1021 19.52595,3.9228 28.33788,8.3333 1.36127,1.1488 1.53705,-1.4237 2.28774,-2.1915 3.25578,-6.1892 6.86716,-12.2089 9.80148,-18.5575 -0.18662,-0.7736 -1.4705,-0.9819 -2.05786,-1.4948 -11.43437,-6.4605 -24.626,-9.7444 -37.73979,-9.7263 z"
   id="path882"
   transform="scale(26.458334)" /><path
   style="fill:#318f44;fill-opacity:1;fill-rule:evenodd;stroke-width:0.212724;stroke-miterlimit:8;paint-order:markers fill stroke"
   d="m 795.19178,1296.9772 c 0,4.0772 0,8.1544 0,12.2316 -3.75813,0 -7.51625,0 -11.27437,0 0,9.0053 0,18.0106 0,27.0159 3.75092,0 7.50184,0 11.25276,0 0.11724,14.5818 -0.049,29.1682 0.29343,43.7468 0.31914,8.2296 3.63085,16.8021 10.46907,21.7618 4.8986,3.5156 11.0162,4.8889 16.92983,5.4057 6.40298,0.1342 12.92353,0.1537 19.11649,-1.7063 3.13685,-0.8933 6.33531,-1.9597 9.06569,-3.7534 0.13704,-8.7549 -0.006,-17.5138 -0.0129,-26.2702 -5.2456,2.3013 -11.25355,4.1206 -16.95974,2.5573 -3.59405,-1.0889 -5.28214,-5.1583 -4.95622,-8.6618 -0.16717,-11.0258 -0.0774,-22.0533 -0.10096,-33.0799 7.44533,0 14.89067,0 22.33601,0 0,-9.0053 0,-18.0106 0,-27.0159 -7.44534,0 -14.89068,0 -22.33601,0 0,-8.1544 0,-16.3089 0,-24.4633 -11.27437,0 -22.54874,0 -33.8231,0 0,4.0772 0,8.1544 0,12.2317 z"
   id="path884"
   transform="scale(26.458334)" /><path
   style="fill:#318f44;fill-opacity:1;fill-rule:evenodd;stroke-width:0.212724;stroke-miterlimit:8;paint-order:markers fill stroke"
   d="m 927.02741,1307.5743 c -7.38709,0.052 -14.7145,3.1721 -19.63084,8.7296 -3.26684,3.5277 -5.52725,7.8208 -7.52303,12.1564 -0.007,-6.4172 -0.0144,-12.8344 -0.0216,-19.2515 -11.27437,0 -22.54874,0 -33.8231,0 0,32.0504 0,64.1008 0,96.1512 11.26578,0 22.53156,0 33.79734,0 0.13277,-12.0462 -0.0446,-24.0993 0.33792,-36.1407 0.58585,-7.2753 3.08136,-14.821 8.49359,-19.9406 5.73209,-5.1904 13.82466,-6.5012 21.30299,-6.2468 0.72351,-0.5855 0.10507,-2.513 0.31077,-3.6163 0,-10.6576 0,-21.3151 0,-31.9726 -1.08134,0.044 -2.16269,0.088 -3.24404,0.1313 z"
   id="path886"
   transform="scale(26.458334)" /><path
   style="fill:#318f44;fill-opacity:1;fill-rule:evenodd;stroke-width:0.212724;stroke-miterlimit:8;paint-order:markers fill stroke"
   d="m 979.60927,1307.7563 c -11.78023,-0.044 -23.60406,1.7769 -34.64242,5.965 -1.13173,0.4989 -2.54561,0.7669 -3.48293,1.4986 1.95144,7.9532 4.44273,15.7859 6.66839,23.6531 6.67095,-2.4757 13.56567,-4.6025 20.72022,-4.9745 6.05666,-0.2412 12.63121,-0.7844 18.10896,2.3246 3.93747,2.0528 6.47473,6.2104 6.74318,10.615 0.0211,1.3125 0.36721,2.7706 0.01,4.013 -5.73081,-1.7321 -11.67974,-3.0012 -17.67454,-3.3592 -7.29628,-0.2914 -14.75615,-0.2899 -21.77285,2.009 -7.72261,2.2346 -14.93984,7.2534 -18.415,14.6754 -3.5283,7.7206 -3.67592,16.8588 -0.903,24.8359 2.7005,7.7662 9.35188,13.7479 17.08665,16.3011 5.15753,1.8519 10.68366,2.4114 16.13079,1.9999 9.07587,-0.2457 17.97366,-4.1082 24.28947,-10.6446 0.49121,-0.3816 1.60587,-1.8792 1.33725,-0.2831 0.10254,2.9903 0.0486,5.9831 0.0625,8.9745 11.06606,0 22.13216,0 33.19816,0 -0.1,-20.1676 0.029,-40.3375 -0.2435,-60.5036 -0.094,-7.9214 -2.4507,-15.9738 -7.2605,-22.3295 -3.9263,-4.7908 -8.9769,-8.682 -14.8017,-10.8631 -7.97137,-3.1434 -16.65854,-3.9188 -25.15909,-3.9075 z m 2.55768,55.8616 c 4.11676,0.01 8.1672,0.9223 12.02804,2.3051 -0.11701,4.1733 0.53228,8.7073 -1.79168,12.4443 -2.77984,5.2517 -8.79893,8.0751 -14.5996,7.9685 -4.93927,0.4149 -10.51005,-2.355 -11.80544,-7.4196 -1.15761,-4.2461 -0.0219,-9.2575 3.6109,-11.9828 3.45359,-2.9429 8.20281,-3.4108 12.55778,-3.3155 z"
   id="path888"
   transform="scale(26.458334)" /><path
   style="fill:#318f44;fill-opacity:1;fill-rule:evenodd;stroke-width:0.212724;stroke-miterlimit:8;paint-order:markers fill stroke"
   d="m 1053.864,1298.5726 c 0,4.609 0,9.218 0,13.827 -4.3253,0 -8.6507,0 -12.9761,0 0,4.0418 0,8.0835 0,12.1253 4.3254,0 8.6508,0 12.9761,0 0.056,19.5178 -0.128,39.0379 0.1342,58.5542 0.1552,7.8444 3.8797,16.2068 11.1584,19.8463 4.706,2.231 9.9672,3.3062 15.1724,2.967 5.4958,0.1483 10.9704,-1.234 15.8671,-3.6959 0,-3.8998 0,-7.7996 0,-11.6994 -6.3905,3.1968 -14.1483,4.2726 -20.9654,1.8277 -4.7417,-1.6969 -7.9055,-6.714 -7.5496,-11.7116 -0.2172,-18.6949 -0.1323,-37.3924 -0.2131,-56.0883 9.7178,0 19.4357,0 29.1535,0 0,-4.0418 0,-8.0835 0,-12.1253 -9.7143,0 -19.4287,0 -29.1431,0 0,-9.218 0,-18.436 0,-27.6541 -4.5381,0 -9.0762,0 -13.6144,0 0,4.609 0,9.2181 0,13.8271 z"
   id="path890"
   transform="scale(26.458334)" /><path
   style="fill:#318f44;fill-opacity:1;fill-rule:evenodd;stroke-width:0.212724;stroke-miterlimit:8;paint-order:markers fill stroke"
   d="m 1156.1921,1310.5383 c -12.2305,-0.067 -24.2433,5.6461 -32.065,15.0195 -7.6097,8.8038 -11.4889,20.4507 -11.5043,32.0219 -0.1696,8.1881 1.2163,16.5187 5.0474,23.8267 5.2838,11.1428 15.4174,19.8553 27.2888,23.2455 5.6643,1.7434 11.6387,2.2129 17.531,1.7428 8.7196,-0.2752 17.3701,-3.1178 24.3164,-8.4485 3.3881,-2.5183 6.6261,-5.3319 9.3699,-8.531 -2.6542,-2.6848 -5.5709,-5.1079 -8.3569,-7.658 -6.3548,6.3477 -14.3498,11.7324 -23.4997,12.6325 -8.5402,1.0649 -17.7223,-0.4065 -24.6731,-5.7576 -7.7762,-5.7257 -12.419,-15.0597 -13.2419,-24.5897 -0.055,-1.2523 2.349,-0.2841 3.3432,-0.589 23.1962,0 46.3924,0 69.5885,0 0.5094,-4.6746 0.01,-9.4124 -0.5629,-14.0622 -1.6215,-11.2113 -6.618,-22.3046 -15.5355,-29.5695 -7.4882,-6.3446 -17.2879,-9.4491 -27.0459,-9.2834 z m 0.7388,11.4746 c 9.2363,0.038 18.2077,5.1073 22.9868,13.014 3.4323,5.4696 5.181,11.9524 5.7928,18.2772 -19.7672,0.266 -39.5387,0.1053 -59.3076,0.1512 0.8152,-10.1092 5.6392,-20.2082 13.979,-26.223 4.7806,-3.4325 10.6566,-5.3258 16.549,-5.2194 z"
   id="path892"
   transform="scale(26.458334)" /><path
   style="fill:#318f44;fill-opacity:1;fill-rule:evenodd;stroke-width:0.212724;stroke-miterlimit:8;paint-order:markers fill stroke"
   d="m 1224.8941,1339.5219 c 0,21.6624 0,43.3248 0,64.9872 4.5381,0 9.0762,0 13.6143,0 0,-43.3248 0,-86.6496 0,-129.9743 -4.5381,0 -9.0762,0 -13.6143,0 0,21.6624 0,43.3247 0,64.9871 z"
   id="path894"
   transform="scale(26.458334)" /><path
   style="fill:#318f44;fill-opacity:1;fill-rule:evenodd;stroke-width:0.212724;stroke-miterlimit:8;paint-order:markers fill stroke"
   d="m 1308.1368,1310.5275 c -12.4359,0.041 -24.6135,6.0233 -32.334,15.7566 -6.2849,7.8137 -10.2099,17.5917 -10.7654,27.6212 0,5.6719 -0.3939,11.4421 1.1086,16.9808 3.2313,14.6825 13.9404,27.7535 28.2302,32.829 7.2482,2.7237 15.1291,3.3722 22.7896,2.4958 10.1022,-0.6624 19.6495,-5.4041 26.8868,-12.3794 1.4445,-1.4743 3.2246,-2.8437 4.3564,-4.5077 -2.692,-2.598 -5.5359,-5.0338 -8.3083,-7.545 -6.4127,6.2996 -14.41,11.7584 -23.5886,12.6105 -8.0553,0.9604 -16.6778,-0.1755 -23.4366,-4.9413 -7.7781,-5.2029 -12.8203,-13.9206 -14.1143,-23.1258 0.01,-0.8679 -0.754,-2.6518 0.1775,-2.8688 24.1972,0 48.3944,0 72.5916,0 -0.1342,-6.5223 0.03,-13.143 -1.7647,-19.4846 -2.1138,-8.5859 -6.2463,-16.909 -12.9708,-22.8093 -4.0334,-4.0298 -9.2708,-6.5915 -14.5434,-8.5884 -4.6113,-1.4686 -9.4839,-2.0822 -14.3146,-2.0436 z m 0.6797,11.468 c 8.9618,-0.041 17.8112,4.532 22.7518,12.0465 3.7035,5.5215 5.5912,12.1136 6.3401,18.6682 0.1978,1.3707 -2.2297,0.3058 -3.1441,0.6446 -18.6837,0.034 -37.3674,0.068 -56.0511,0.1022 0.3331,-5.5747 2.1634,-11.0436 4.8516,-15.9221 4.6679,-8.5089 13.498,-14.965 23.3501,-15.4839 0.6329,-0.041 1.2674,-0.059 1.9016,-0.055 z"
   id="path896"
   transform="scale(26.458334)" /></svg>
