<?xml version="1.0" encoding="UTF-8" standalone="no"?>
<svg
   xmlns:dc="http://purl.org/dc/elements/1.1/"
   xmlns:cc="http://creativecommons.org/ns#"
   xmlns:rdf="http://www.w3.org/1999/02/22-rdf-syntax-ns#"
   xmlns:svg="http://www.w3.org/2000/svg"
   xmlns="http://www.w3.org/2000/svg"
   xmlns:sodipodi="http://sodipodi.sourceforge.net/DTD/sodipodi-0.dtd"
   xmlns:inkscape="http://www.inkscape.org/namespaces/inkscape"
   width="100"
   height="21"
   viewBox="0 0 80 16.8"
   version="1.1"
   id="svg2"
   sodipodi:version="0.32"
   inkscape:version="0.92.4 (5da689c313, 2019-01-14)"
   sodipodi:docname="Bogotá marca.svg">
  <title
     id="title841">Semana (Colombia) logo</title>
  <metadata
     id="metadata59">
    <rdf:RDF>
      <cc:Work
         rdf:about="">
        <dc:format>image/svg+xml</dc:format>
        <dc:type
           rdf:resource="http://purl.org/dc/dcmitype/StillImage" />
        <dc:title>Semana (Colombia) logo</dc:title>
        <cc:license
           rdf:resource="http://scripts.sil.org/OFL" />
        <dc:date>4 abr 2020</dc:date>
        <dc:creator>
          <cc:Agent>
            <dc:title>EEIM</dc:title>
          </cc:Agent>
        </dc:creator>
        <dc:rights>
          <cc:Agent>
            <dc:title>N/A</dc:title>
          </cc:Agent>
        </dc:rights>
      </cc:Work>
      <cc:License
         rdf:about="http://scripts.sil.org/OFL">
        <cc:permits
           rdf:resource="http://scripts.sil.org/pub/OFL/Reproduction" />
        <cc:permits
           rdf:resource="http://scripts.sil.org/pub/OFL/Distribution" />
        <cc:permits
           rdf:resource="http://scripts.sil.org/pub/OFL/Embedding" />
        <cc:permits
           rdf:resource="http://scripts.sil.org/pub/OFL/DerivativeWorks" />
        <cc:requires
           rdf:resource="http://scripts.sil.org/pub/OFL/Notice" />
        <cc:requires
           rdf:resource="http://scripts.sil.org/pub/OFL/Attribution" />
        <cc:requires
           rdf:resource="http://scripts.sil.org/pub/OFL/ShareAlike" />
        <cc:requires
           rdf:resource="http://scripts.sil.org/pub/OFL/DerivativeRenaming" />
        <cc:requires
           rdf:resource="http://scripts.sil.org/pub/OFL/BundlingWhenSelling" />
      </cc:License>
    </rdf:RDF>
  </metadata>
  <defs
     id="defs57">
    <pattern
       y="0"
       x="0"
       height="6"
       width="6"
       patternUnits="userSpaceOnUse"
       id="EMFhbasepattern" />
  </defs>
  <sodipodi:namedview
     inkscape:window-height="705"
     inkscape:window-width="1366"
     inkscape:pageshadow="2"
     inkscape:pageopacity="0"
     guidetolerance="1"
     gridtolerance="1"
     objecttolerance="1"
     borderopacity="1.0"
     bordercolor="#666666"
     pagecolor="#ffffff"
     id="base"
     inkscape:zoom="1"
     inkscape:cx="59.404616"
     inkscape:cy="22.040314"
     inkscape:window-x="-8"
     inkscape:window-y="-8"
     inkscape:current-layer="svg2"
     showgrid="false"
     showguides="false"
     inkscape:showpageshadow="false"
     units="px"
     inkscape:window-maximized="1" />
  <g
     id="#ffffffff"
     transform="translate(0,-1124.2)" />
  <g
     id="#2acbffff-4"
     transform="matrix(0.74035173,0,0,0.75447038,-840.95699,-810.35387)"
     style="fill:#00ff00" />
  <g
     id="g16-5"
     transform="matrix(0.82681144,0,0,0.82681144,-70.527269,-42.929576)">
    <path
       style="fill:#e91b1e;stroke-width:0.36130413"
       d="m 92.581493,52.597856 c -3.287868,0 -6.070192,1.915195 -6.070192,5.347584 0,3.468519 2.818172,4.80478 5.23891,5.924823 2.312347,1.156173 4.011041,1.734824 4.011041,3.469084 0,1.517478 -1.373238,2.311782 -2.999107,2.311782 -1.987173,0 -4.408193,-1.156173 -5.528236,-3.613041 h -1.155891 v 5.383573 h 1.047924 l 0.577945,-2.312488 c 1.192304,1.409086 3.143629,2.601813 5.708888,2.601813 3.251737,0 6.539464,-1.914771 6.539464,-5.636203 0,-3.215607 -2.49314,-4.769215 -5.022269,-5.961518 -2.420738,-1.192304 -4.480312,-1.842652 -4.480312,-3.613042 0,-1.336825 1.156596,-1.951183 2.601813,-1.951183 1.806521,0 3.938215,0.939249 4.696954,3.107074 h 1.15589 v -5.058258 h -1.047923 l -0.469272,1.987173 c -0.867129,-0.90326 -2.384889,-1.987173 -4.805627,-1.987173 z m 52.317117,4.624975 c -1.91491,0 -4.04703,0.794305 -5.67289,2.311783 l 0.61464,0.831281 c 0.86713,-0.614217 1.98717,-0.975239 3.07108,-0.975239 1.662,0 3.17905,0.902837 3.17905,2.998401 -4.37178,0.79487 -7.65936,1.481488 -7.65936,5.022269 0,2.926563 2.0957,4.263671 4.11901,4.263671 1.44521,0 2.89015,-0.57851 3.50436,-1.879205 h 0.14467 c 0.43356,1.300695 1.51733,1.806521 2.92642,1.806521 0.831,0 1.69841,-0.180793 2.45715,-0.505967 h 0.036 v -0.93925 c -1.62587,0.216783 -1.5179,-0.939249 -1.5179,-1.661858 V 62.53372 c 0,-3.54078 -2.31178,-5.310889 -5.20222,-5.310889 z m 29.87957,0 c -1.91491,0 -4.04632,0.794305 -5.67219,2.311783 l 0.61393,0.831281 c 0.86713,-0.614217 1.98718,-0.975239 3.07109,-0.975239 1.662,0 3.17976,0.902837 3.17976,2.998401 -4.37178,0.79487 -7.66007,1.481488 -7.66007,5.022269 0,2.926563 2.0957,4.263671 4.11901,4.263671 1.44521,0 2.89015,-0.57851 3.50436,-1.879205 h 0.14467 c 0.43356,1.300695 1.51733,1.806521 2.92642,1.806521 0.831,0 1.69841,-0.180793 2.45715,-0.505967 h 0.036 v -0.93925 c -1.62587,0.216783 -1.5172,-0.939249 -1.5172,-1.661858 V 62.53372 c 0,-3.54078 -2.31248,-5.310889 -5.20292,-5.310889 z m -67.52788,0.07198 c -3.72143,0 -6.21415,2.962976 -6.21415,6.973452 0,4.118867 2.74577,7.406735 6.72012,7.406735 2.8543,0 5.3473,-1.806662 6.32282,-4.480312 l -0.54196,-0.758598 c -1.15617,1.156173 -2.52884,1.914488 -4.04632,1.914488 -1.69813,0 -3.28815,-0.975662 -4.26367,-3.035095 l 0.072,-0.143958 7.5154,-3.396399 c -0.54195,-2.709781 -2.67379,-4.480313 -5.56422,-4.480313 z m 16.51202,0.07198 c -2.493,0 -3.75784,1.661999 -4.26367,2.348477 h -0.10867 v -2.095141 h -0.57795 l -4.69695,0.975239 v 0.975944 l 1.37324,0.397294 v 9.213256 c 0,0.578086 -0.18052,0.866706 -0.7586,1.011228 l -0.72261,0.180652 v 0.975944 h 7.08142 V 70.37374 l -0.7586,-0.180652 c -0.54195,-0.144522 -0.7593,-0.433142 -0.7593,-1.011228 v -8.202028 c 0.93939,-0.578086 1.73426,-0.830576 2.34848,-0.830576 1.33682,0 1.98717,1.047923 1.98717,2.673792 v 6.358812 c 0,0.578086 -0.21664,0.866706 -0.7586,1.011228 l -0.7586,0.180652 v 0.975944 h 6.97346 V 70.37374 l -0.72261,-0.180652 c -0.57809,-0.144522 -0.75931,-0.433142 -0.75931,-1.011228 v -7.370746 c 0,-0.289043 2.9e-4,-0.578228 -0.072,-0.867271 0.93939,-0.578087 1.73426,-0.830576 2.34847,-0.830576 1.33683,0 2.05915,1.083912 2.05915,2.709781 v 6.358812 c 0,0.578086 -0.21664,0.866706 -0.75859,1.011228 l -0.7586,0.180652 v 0.975944 h 7.1541 V 70.37374 l -0.79529,-0.180652 c -0.57809,-0.144522 -0.7586,-0.433142 -0.7586,-1.011228 v -7.370746 c 0,-2.203955 -1.40937,-4.444323 -4.26367,-4.444323 -2.493,0 -3.97378,1.661999 -4.47961,2.348477 h -0.10867 c -0.57806,-1.336828 -1.77008,-2.348479 -3.68499,-2.348479 z m 38.08089,0 c -2.45687,0 -3.64917,1.661999 -4.155,2.348477 h -0.10796 v -2.095141 h -0.57795 l -4.69695,0.975239 v 0.975944 l 1.37253,0.397294 v 9.213256 c 0,0.578086 -0.18051,0.866706 -0.7586,1.011228 l -0.72261,0.180652 v 0.975944 h 7.15411 V 70.37374 l -0.7593,-0.180652 c -0.54196,-0.144522 -0.7586,-0.433142 -0.7586,-1.011228 v -8.238017 c 0.90326,-0.578087 1.69827,-0.830576 2.31248,-0.830576 1.3007,0 1.9152,1.083912 1.9152,2.709781 v 6.358812 c 0,0.578086 -0.21735,0.866706 -0.7593,1.011228 l -0.7586,0.180652 v 0.975944 h 7.1541 V 70.37374 l -0.72261,-0.180652 c -0.57808,-0.144522 -0.75859,-0.433142 -0.75859,-1.011228 h -0.10868 v -7.370746 c 0,-2.203955 -1.40936,-4.444323 -4.26367,-4.444323 z m -55.53216,1.481911 c 1.08391,0 1.87864,0.794587 2.38447,3.323716 l -3.97435,1.951184 c -0.75874,-2.60139 -0.2889,-5.2749 1.58988,-5.2749 z m 39.70746,4.768933 v 4.444323 c 0,0.722608 -0.65034,1.192021 -1.44521,1.155891 -1.22844,0 -2.05986,-0.867272 -2.05986,-2.673792 0,-1.951043 1.08434,-2.348336 3.50507,-2.926422 z m 29.87957,0 v 4.444323 c 0,0.722608 -0.61421,1.192021 -1.44521,1.155891 -1.22844,0 -2.05915,-0.867272 -2.05915,-2.673792 0,-1.951043 1.08363,-2.348336 3.50436,-2.926422 z"
       id="path4-2"
       inkscape:connector-curvature="0" />
  </g>
</svg>
